HIERARCHY
ROOT newVegas:Hips
{
	OFFSET 0.000000 96.479958 0.000000
	CHANNELS 6 Xposition Yposition Zposition Xrotation Yrotation Zrotation
	JOINT newVegas:Pelvis
	{
		OFFSET 0.000000 0.000000 0.000000
		CHANNELS 3 Xrotation Yrotation Zrotation
		JOINT newVegas:LeftUpLeg
		{
			OFFSET 18.735201 -5.666702 -4.541200
			CHANNELS 3 Xrotation Yrotation Zrotation
			JOINT newVegas:LeftLeg
			{
				OFFSET -0.021200 -31.938179 0.493100
				CHANNELS 3 Xrotation Yrotation Zrotation
				JOINT newVegas:LeftFoot
				{
					OFFSET 0.021200 -31.938179 -4.336299
					CHANNELS 3 Xrotation Yrotation Zrotation
					JOINT newVegas:LeftToeBase
					{
						OFFSET 0.943001 -26.722000 15.023500
						CHANNELS 3 Xrotation Yrotation Zrotation
						End Site
						{
							OFFSET 0.000000 30.670183 0.000000
						}
					}
				}
				JOINT newVegas:Left_PantLeg
				{
					OFFSET 0.663870 -9.044666 -1.108900
					CHANNELS 3 Xrotation Yrotation Zrotation
					End Site
					{
						OFFSET 1.415995 20.635357 0.000000
					}
				}
			}
		}
		JOINT newVegas:RightUpLeg
		{
			OFFSET -18.735201 -5.666702 -4.541200
			CHANNELS 3 Xrotation Yrotation Zrotation
			JOINT newVegas:RightLeg
			{
				OFFSET 0.018946 -31.938133 0.493100
				CHANNELS 3 Xrotation Yrotation Zrotation
				JOINT newVegas:RightFoot
				{
					OFFSET -0.018946 -31.938126 -4.336299
					CHANNELS 3 Xrotation Yrotation Zrotation
					JOINT newVegas:RightToeBase
					{
						OFFSET -0.943001 -26.722004 15.023500
						CHANNELS 3 Xrotation Yrotation Zrotation
						End Site
						{
							OFFSET 0.000000 30.670187 0.000000
						}
					}
				}
				JOINT newVegas:Right_PantLeg
				{
					OFFSET -0.661674 -9.044716 -1.108900
					CHANNELS 3 Xrotation Yrotation Zrotation
					End Site
					{
						OFFSET -1.415958 20.635269 0.000000
					}
				}
			}
		}
	}
	JOINT newVegas:Spine
	{
		OFFSET 0.000000 10.199997 -0.299500
		CHANNELS 3 Xrotation Yrotation Zrotation
		JOINT newVegas:Spine1
		{
			OFFSET 0.000000 11.900002 -1.516600
			CHANNELS 3 Xrotation Yrotation Zrotation
			JOINT newVegas:Spine2
			{
				OFFSET 0.000000 13.600006 -2.842500
				CHANNELS 3 Xrotation Yrotation Zrotation
				JOINT newVegas:Neck
				{
					OFFSET 0.000000 9.624100 -2.890100
					CHANNELS 3 Xrotation Yrotation Zrotation
					JOINT newVegas:Head
					{
						OFFSET 0.000000 14.068802 -1.351900
						CHANNELS 3 Xrotation Yrotation Zrotation
						JOINT newVegas:Hair_Back
						{
							OFFSET 0.000000 3.231903 -17.524799
							CHANNELS 3 Xrotation Yrotation Zrotation
							End Site
							{
								OFFSET 0.000000 19.849884 0.000000
							}
						}
						JOINT newVegas:Hair_Front
						{
							OFFSET 0.000000 31.260406 4.573800
							CHANNELS 3 Xrotation Yrotation Zrotation
							JOINT newVegas:Hair_Front1
							{
								OFFSET 0.000000 2.284103 11.993300
								CHANNELS 3 Xrotation Yrotation Zrotation
								JOINT newVegas:Hair_Front2
								{
									OFFSET 0.000000 2.284103 11.993300
									CHANNELS 3 Xrotation Yrotation Zrotation
									End Site
									{
										OFFSET 0.000000 12.208862 0.000000
									}
								}
							}
						}
						JOINT newVegas:Jowel
						{
							OFFSET 0.000000 -7.458206 6.864100
							CHANNELS 3 Xrotation Yrotation Zrotation
							End Site
							{
								OFFSET 0.000000 19.849884 0.000000
							}
						}
					}
				}
				JOINT newVegas:LeftShoulder
				{
					OFFSET 15.263000 10.923401 -0.547700
					CHANNELS 3 Xrotation Yrotation Zrotation
					JOINT newVegas:LeftArm
					{
						OFFSET 25.438599 -2.830597 -13.032500
						CHANNELS 3 Xrotation Yrotation Zrotation
						JOINT newVegas:LeftForeArm
						{
							OFFSET 29.960503 0.000000 0.000000
							CHANNELS 3 Xrotation Yrotation Zrotation
							JOINT newVegas:LeftHand
							{
								OFFSET 27.849251 0.000000 0.000000
								CHANNELS 3 Xrotation Yrotation Zrotation
								JOINT newVegas:LeftHandThumb1
								{
									OFFSET 4.487587 -3.305161 6.305391
									CHANNELS 3 Xrotation Yrotation Zrotation
									JOINT newVegas:LeftHandThumb2
									{
										OFFSET 5.480453 -3.164139 3.164143
										CHANNELS 3 Xrotation Yrotation Zrotation
										JOINT newVegas:LeftHandThumb3
										{
											OFFSET 5.159721 -2.978973 2.978967
											CHANNELS 3 Xrotation Yrotation Zrotation
											End Site
											{
												OFFSET 2.494507 5.926697 1.738678
											}
										}
									}
								}
								JOINT newVegas:LeftHandIndex1
								{
									OFFSET 18.578728 -0.527832 5.208049
									CHANNELS 3 Xrotation Yrotation Zrotation
									JOINT newVegas:LeftHandIndex2
									{
										OFFSET 3.192009 0.000000 0.000000
										CHANNELS 3 Xrotation Yrotation Zrotation
										JOINT newVegas:LeftHandIndex3
										{
											OFFSET 3.835129 0.000000 0.000000
											CHANNELS 3 Xrotation Yrotation Zrotation
											End Site
											{
												OFFSET -0.034599 3.816971 0.371180
											}
										}
									}
								}
								JOINT newVegas:LeftHandMiddle1
								{
									OFFSET 18.476105 0.000000 0.000000
									CHANNELS 3 Xrotation Yrotation Zrotation
									JOINT newVegas:LeftHandMiddle2
									{
										OFFSET 3.324875 0.000000 0.000000
										CHANNELS 3 Xrotation Yrotation Zrotation
										JOINT newVegas:LeftHandMiddle3
										{
											OFFSET 4.596550 0.000000 0.000000
											CHANNELS 3 Xrotation Yrotation Zrotation
											End Site
											{
												OFFSET 0.057701 4.578827 0.399218
											}
										}
									}
								}
								JOINT newVegas:LeftHandRing1
								{
									OFFSET 17.732719 0.121887 -4.201567
									CHANNELS 3 Xrotation Yrotation Zrotation
									JOINT newVegas:LeftHandRing2
									{
										OFFSET 2.733170 0.000000 0.000000
										CHANNELS 3 Xrotation Yrotation Zrotation
										JOINT newVegas:LeftHandRing3
										{
											OFFSET 3.178268 0.000000 0.000000
											CHANNELS 3 Xrotation Yrotation Zrotation
											End Site
											{
												OFFSET 0.119102 3.170624 0.185394
											}
										}
									}
								}
								JOINT newVegas:LeftHandPinky1
								{
									OFFSET 15.989624 -0.606689 -7.535461
									CHANNELS 3 Xrotation Yrotation Zrotation
									JOINT newVegas:LeftHandPinky2
									{
										OFFSET 2.538986 0.000000 0.000000
										CHANNELS 3 Xrotation Yrotation Zrotation
										JOINT newVegas:LeftHandPinky3
										{
											OFFSET 2.593102 0.000000 0.000000
											CHANNELS 3 Xrotation Yrotation Zrotation
											End Site
											{
												OFFSET -0.150902 2.584198 0.152708
											}
										}
									}
								}
							}
							JOINT newVegas:Left_Sleeve
							{
								OFFSET 0.267448 -0.649796 0.577675
								CHANNELS 3 Xrotation Yrotation Zrotation
								End Site
								{
									OFFSET 0.000000 15.991241 0.000000
								}
							}
							JOINT newVegas:Left_CapeC
							{
								OFFSET 15.715958 -8.608795 -6.935905
								CHANNELS 3 Xrotation Yrotation Zrotation
								JOINT newVegas:Left_CapeC1
								{
									OFFSET 0.000000 -8.688499 0.000000
									CHANNELS 3 Xrotation Yrotation Zrotation
									End Site
									{
										OFFSET 0.000000 8.688499 0.000000
									}
								}
							}
						}
						JOINT newVegas:Left_CapeB
						{
							OFFSET 26.118385 -8.608795 -7.079235
							CHANNELS 3 Xrotation Yrotation Zrotation
							JOINT newVegas:Left_CapeB1
							{
								OFFSET 0.000000 -8.688499 0.000000
								CHANNELS 3 Xrotation Yrotation Zrotation
								End Site
								{
									OFFSET 0.000000 8.688499 0.000000
								}
							}
						}
						JOINT newVegas:Left_CapeA
						{
							OFFSET 5.115639 -8.608795 -10.395809
							CHANNELS 3 Xrotation Yrotation Zrotation
							JOINT newVegas:Left_CapeA1
							{
								OFFSET 0.000000 -8.688499 0.000000
								CHANNELS 3 Xrotation Yrotation Zrotation
								End Site
								{
									OFFSET 0.000000 8.688499 0.000000
								}
							}
						}
					}
				}
				JOINT newVegas:RightShoulder
				{
					OFFSET -15.263000 10.923401 -0.547700
					CHANNELS 3 Xrotation Yrotation Zrotation
					JOINT newVegas:RightArm
					{
						OFFSET -25.438599 -2.830597 -13.032500
						CHANNELS 3 Xrotation Yrotation Zrotation
						JOINT newVegas:RightForeArm
						{
							OFFSET -29.960503 0.000000 0.000000
							CHANNELS 3 Xrotation Yrotation Zrotation
							JOINT newVegas:RightHand
							{
								OFFSET -27.849251 0.000000 0.000000
								CHANNELS 3 Xrotation Yrotation Zrotation
								JOINT newVegas:RightHandThumb1
								{
									OFFSET -4.487587 -3.305161 6.305391
									CHANNELS 3 Xrotation Yrotation Zrotation
									JOINT newVegas:RightHandThumb2
									{
										OFFSET -5.480453 -3.164139 3.164143
										CHANNELS 3 Xrotation Yrotation Zrotation
										JOINT newVegas:RightHandThumb3
										{
											OFFSET -5.159721 -2.978973 2.978967
											CHANNELS 3 Xrotation Yrotation Zrotation
											End Site
											{
												OFFSET -2.494507 5.926697 1.738678
											}
										}
									}
								}
								JOINT newVegas:RightHandIndex1
								{
									OFFSET -18.578728 -0.527832 5.208049
									CHANNELS 3 Xrotation Yrotation Zrotation
									JOINT newVegas:RightHandIndex2
									{
										OFFSET -3.192009 0.000000 0.000000
										CHANNELS 3 Xrotation Yrotation Zrotation
										JOINT newVegas:RightHandIndex3
										{
											OFFSET -3.835129 0.000000 0.000000
											CHANNELS 3 Xrotation Yrotation Zrotation
											End Site
											{
												OFFSET 0.034599 3.816971 0.371180
											}
										}
									}
								}
								JOINT newVegas:RightHandMiddle1
								{
									OFFSET -18.476105 0.000000 0.000000
									CHANNELS 3 Xrotation Yrotation Zrotation
									JOINT newVegas:RightHandMiddle2
									{
										OFFSET -3.324875 0.000000 0.000000
										CHANNELS 3 Xrotation Yrotation Zrotation
										JOINT newVegas:RightHandMiddle3
										{
											OFFSET -4.596550 0.000000 0.000000
											CHANNELS 3 Xrotation Yrotation Zrotation
											End Site
											{
												OFFSET -0.057701 4.578827 0.399218
											}
										}
									}
								}
								JOINT newVegas:RightHandRing1
								{
									OFFSET -17.732719 0.121887 -4.201567
									CHANNELS 3 Xrotation Yrotation Zrotation
									JOINT newVegas:RightHandRing2
									{
										OFFSET -2.733170 0.000000 0.000000
										CHANNELS 3 Xrotation Yrotation Zrotation
										JOINT newVegas:RightHandRing3
										{
											OFFSET -3.178268 0.000000 0.000000
											CHANNELS 3 Xrotation Yrotation Zrotation
											End Site
											{
												OFFSET -0.119102 3.170624 0.185394
											}
										}
									}
								}
								JOINT newVegas:RightHandPinky1
								{
									OFFSET -15.989624 -0.606689 -7.535461
									CHANNELS 3 Xrotation Yrotation Zrotation
									JOINT newVegas:RightHandPinky2
									{
										OFFSET -2.538986 0.000000 0.000000
										CHANNELS 3 Xrotation Yrotation Zrotation
										JOINT newVegas:RightHandPinky3
										{
											OFFSET -2.593102 0.000000 0.000000
											CHANNELS 3 Xrotation Yrotation Zrotation
											End Site
											{
												OFFSET 0.150902 2.584198 0.152708
											}
										}
									}
								}
							}
							JOINT newVegas:Right_CapeC
							{
								OFFSET -15.715958 -8.608795 -6.935905
								CHANNELS 3 Xrotation Yrotation Zrotation
								JOINT newVegas:Right_CapeC1
								{
									OFFSET 0.000000 -8.688499 0.000000
									CHANNELS 3 Xrotation Yrotation Zrotation
									End Site
									{
										OFFSET 0.000000 8.688499 0.000000
									}
								}
							}
							JOINT newVegas:Right_Sleeve
							{
								OFFSET -0.267448 -0.649994 0.577675
								CHANNELS 3 Xrotation Yrotation Zrotation
								End Site
								{
									OFFSET 0.000000 15.991302 0.000000
								}
							}
						}
						JOINT newVegas:Right_CapeA
						{
							OFFSET -5.115540 -8.608795 -10.395824
							CHANNELS 3 Xrotation Yrotation Zrotation
							JOINT newVegas:Right_CapeA1
							{
								OFFSET 0.000000 -8.688499 0.000000
								CHANNELS 3 Xrotation Yrotation Zrotation
								End Site
								{
									OFFSET 0.000000 8.688499 0.000000
								}
							}
						}
						JOINT newVegas:Right_CapeB
						{
							OFFSET -26.118187 -8.608795 -7.079266
							CHANNELS 3 Xrotation Yrotation Zrotation
							JOINT newVegas:Right_CapeB1
							{
								OFFSET 0.000000 -8.688499 0.000000
								CHANNELS 3 Xrotation Yrotation Zrotation
								End Site
								{
									OFFSET 0.000000 8.688499 0.000000
								}
							}
						}
					}
				}
				JOINT newVegas:Left_Collar
				{
					OFFSET 18.625099 8.655502 8.828100
					CHANNELS 3 Xrotation Yrotation Zrotation
					JOINT newVegas:Left_Collar1
					{
						OFFSET 14.783401 10.540405 -1.259500
						CHANNELS 3 Xrotation Yrotation Zrotation
						End Site
						{
							OFFSET 0.000000 18.199875 0.000000
						}
					}
				}
				JOINT newVegas:Collar_Back
				{
					OFFSET 0.000000 15.630707 -20.132601
					CHANNELS 3 Xrotation Yrotation Zrotation
					End Site
					{
						OFFSET 0.000000 22.523010 0.000000
					}
				}
				JOINT newVegas:Left_Peck
				{
					OFFSET 17.239599 -5.132599 25.482599
					CHANNELS 3 Xrotation Yrotation Zrotation
					End Site
					{
						OFFSET 0.000000 22.523010 0.000000
					}
				}
				JOINT newVegas:Right_Peck
				{
					OFFSET -17.239599 -5.132202 25.482599
					CHANNELS 3 Xrotation Yrotation Zrotation
					End Site
					{
						OFFSET 0.000000 22.523010 0.000000
					}
				}
				JOINT newVegas:Right_Collar
				{
					OFFSET -18.625099 8.655792 8.828100
					CHANNELS 3 Xrotation Yrotation Zrotation
					JOINT newVegas:Right_Collar1
					{
						OFFSET -14.783401 10.539993 -1.259500
						CHANNELS 3 Xrotation Yrotation Zrotation
						End Site
						{
							OFFSET 0.000000 18.199631 0.000000
						}
					}
				}
			}
		}
		JOINT newVegas:Belly
		{
			OFFSET 0.000000 -6.540398 9.014299
			CHANNELS 3 Xrotation Yrotation Zrotation
			End Site
			{
				OFFSET 0.000000 11.566666 0.000000
			}
		}
	}
	JOINT newVegas:ElvisFacialAnim_Joint
	{
		OFFSET 1.000000 -95.330101 -8.825800
		CHANNELS 3 Xrotation Yrotation Zrotation
		End Site
		{
			OFFSET 0.000000 35.315800 0.000000
		}
	}
}
MOTION
Frames: 4
Frame Time: 0.033333
1.306157 81.918266 4.359176 11.264465 -2.069498 -5.082174 -0.000000 -0.000000 -0.000000 -79.025132 -3.954014 7.411845 127.077964 6.387935 0.548090 27.320943 0.512258 0.815044 0.000000 -0.000000 0.000000 0.000002 -0.000001 -0.000000 -36.581913 -11.402286 6.935060 60.780795 0.477625 1.327110 -35.006922 3.251167 -8.177374 0.000000 0.000000 0.000000 0.000003 -0.000000 -0.000000 10.000850 1.835960 7.300852 2.029118 -0.047010 0.508498 4.987198 -0.052526 0.186541 -1.224545 0.052409 -0.107549 -1.224537 0.052411 -0.107557 0.000000 0.000000 -0.000000 -1.224556 0.052386 -0.107546 -1.224612 0.052433 -0.107553 0.000000 -0.000000 0.000000 0.000000 0.000000 -0.000000 0.557763 -4.314591 -11.777493 13.923805 -4.816994 -56.121380 -0.000000 -89.999975 0.000005 3.946650 -2.534492 11.903147 -0.820499 6.623798 -5.864598 14.168472 15.386739 18.402794 -0.000001 0.000002 -0.000006 9.947295 5.735776 -90.836250 4.054227 5.569235 -72.086424 -0.000006 -0.000003 -0.000001 4.883429 8.107988 -80.603370 4.657602 5.728443 -78.210754 -0.000000 -0.000004 0.000000 2.753103 7.678681 -78.443514 5.946875 5.850264 -90.939878 0.000002 0.000003 0.000001 7.311323 13.596510 -78.537224 4.413848 5.672363 -75.756961 0.000000 0.000000 -0.000000 0.000001 0.000001 -0.000003 0.000001 0.000001 -0.000003 0.000000 0.000001 -0.000002 -0.000002 -0.000001 -0.000001 -0.000002 -0.000002 -0.000002 -0.000002 -0.000001 -0.000001 -0.000002 -0.000003 -0.000001 0.567976 4.488683 11.813861 -16.187051 25.518756 44.451182 -0.003805 90.272268 0.002875 7.843978 11.318563 -12.809369 5.535801 -3.771065 -3.032804 2.457521 -9.078658 -15.939568 0.000000 -0.000002 -0.000001 -3.723500 -3.298346 73.105010 3.463121 -4.501806 75.128516 0.000001 0.000003 0.000001 -3.073212 -4.980234 74.622358 3.766054 -4.571294 78.957007 -0.000001 -0.000002 -0.000001 -3.819523 -5.359630 78.849534 3.124226 -4.398158 70.762857 0.000001 0.000001 -0.000002 -1.443967 -6.451717 84.219559 3.515515 -4.515361 75.795081 0.000004 0.000002 -0.000000 0.000001 0.000000 -0.000001 0.000001 -0.000001 -0.000002 0.000001 0.000000 -0.000000 0.000001 -0.000001 0.000001 0.000001 -0.000001 0.000000 0.000001 -0.000001 0.000001 0.000001 -0.000001 0.000000 0.000001 -0.000000 0.000000 0.000001 -0.000000 0.000000 0.000001 -0.000000 0.000000 0.000001 -0.000000 0.000000 0.000001 -0.000000 0.000000 0.000001 -0.000000 0.000000 0.000001 -0.000000 0.000000 -0.000002 0.000000 -0.000000 -0.000000 -0.000000 -0.000000 
0.855644 80.839722 15.998446 10.212681 -2.924772 -5.135823 -0.000001 0.000000 0.000000 -109.932714 -7.903862 6.834852 121.192158 4.481064 -1.403091 21.786531 1.261187 -2.859634 0.000003 0.000001 -0.000001 0.000001 0.000001 -0.000000 -22.875080 -7.498673 7.396365 58.061423 -0.371584 4.046592 -42.611129 2.726140 -6.966099 0.000000 -0.000000 0.000000 0.000002 0.000000 -0.000001 10.919197 0.989559 7.112091 2.443513 -0.195007 0.788167 4.943484 -0.186304 0.523451 -1.339389 -0.014042 -0.119741 -1.339382 -0.014044 -0.119737 0.000002 -0.000000 -0.000000 -1.339300 -0.014043 -0.119739 -1.339451 -0.014046 -0.119739 0.000000 0.000001 0.000000 0.000002 -0.000000 0.000000 0.457739 -4.759886 -14.571076 7.176038 -6.832497 -53.188654 -0.000083 -76.383119 -0.000098 5.841549 -3.261522 10.667438 -0.214837 6.589121 -6.093003 14.056546 15.763194 18.800584 -0.000001 0.000001 -0.000003 10.496921 5.526028 -92.772233 4.176453 5.607096 -73.341738 0.000001 0.000001 0.000000 5.035980 8.133157 -82.136747 4.796736 5.755598 -79.601374 -0.000000 0.000000 0.000000 2.570979 7.696739 -79.797530 6.115653 5.845080 -92.596294 -0.000002 0.000001 -0.000002 6.984401 13.279028 -79.644527 4.546289 5.704207 -77.093390 0.000002 -0.000002 0.000003 -0.000001 -0.000002 0.000001 -0.000001 -0.000002 0.000001 -0.000002 -0.000002 0.000002 0.000002 0.000001 0.000001 0.000002 0.000001 0.000001 0.000002 0.000001 0.000001 0.000002 0.000001 -0.000000 0.547197 8.512565 13.889446 -13.186882 32.604437 38.822949 -0.000008 75.712223 -0.000000 8.434947 15.305419 -10.581764 5.534757 -3.770693 -3.032376 2.457709 -9.078866 -15.938776 -0.000003 -0.000000 0.000003 -3.723961 -3.297768 73.101165 3.462920 -4.501758 75.125681 -0.000000 0.000000 0.000001 -3.073110 -4.979728 74.617815 3.765777 -4.571230 78.953380 -0.000004 0.000001 -0.000000 -3.818795 -5.359200 78.845060 3.124078 -4.398117 70.760596 0.000001 0.000002 0.000000 -1.442706 -6.451522 84.215570 3.515256 -4.515274 75.791782 0.000001 0.000002 -0.000001 0.000001 -0.000002 0.000000 0.000001 -0.000000 -0.000002 0.000001 -0.000002 0.000001 -0.000001 0.000002 0.000001 -0.000001 0.000002 0.000001 -0.000001 0.000002 0.000001 -0.000001 0.000002 0.000003 0.000000 0.000000 -0.000000 0.000000 0.000000 -0.000000 0.000000 0.000000 -0.000000 0.000000 0.000000 -0.000000 0.000000 0.000000 -0.000000 0.000000 0.000000 -0.000000 0.000000 0.000000 -0.000000 -0.000000 0.000000 -0.000000 -0.000001 0.000000 0.000000 
0.260720 79.574074 26.799358 6.310212 -4.175752 -5.013734 0.000000 -0.000000 -0.000000 -102.544396 -4.181255 7.953935 93.286143 6.896079 -2.926221 20.238243 2.769717 2.538103 -0.000001 0.000001 -0.000000 0.000000 -0.000000 0.000002 -5.571059 -5.786424 7.152086 52.115378 0.357905 5.213894 -47.357981 2.040723 -7.483552 0.000000 -0.000000 0.000000 0.000003 0.000000 -0.000002 11.621225 -0.435719 6.342305 2.669324 -0.561121 0.943490 4.673278 -0.547996 0.747616 -1.146602 -0.038171 -0.125334 -1.146608 -0.038169 -0.125336 -0.000001 0.000000 -0.000000 -1.146614 -0.038171 -0.125336 -1.146605 -0.038163 -0.125336 -0.000002 -0.000001 0.000000 -0.000001 0.000000 -0.000000 0.575143 -3.930754 -16.060358 3.503437 -9.402852 -52.152299 0.000011 -65.963699 0.000017 8.994540 -3.403959 5.707155 0.773228 6.521880 -6.471663 13.865357 16.377144 19.436357 0.000003 -0.000002 0.000002 11.373580 5.109458 -95.933121 4.378299 5.663298 -75.397017 -0.000002 -0.000001 0.000000 5.287018 8.165712 -84.647204 5.025808 5.792749 -81.878047 0.000001 0.000002 0.000001 2.271357 7.751246 -82.013134 6.391354 5.826134 -95.307346 -0.000000 -0.000002 -0.000001 6.423036 12.796635 -81.453585 4.764676 5.749644 -79.281428 0.000002 -0.000002 -0.000001 0.000003 -0.000003 0.000002 0.000003 -0.000003 0.000002 0.000002 -0.000003 0.000002 0.000001 -0.000001 -0.000001 0.000001 -0.000002 -0.000002 0.000001 -0.000001 -0.000001 -0.000000 0.000000 -0.000000 0.262617 12.829137 16.211401 -8.150272 36.612454 33.405899 0.000042 63.148350 -0.000026 9.044157 18.411613 -9.791074 5.561677 -3.780371 -3.043604 2.452796 -9.073132 -15.958976 0.000001 -0.000000 -0.000001 -3.711404 -3.315139 73.210045 3.468629 -4.503271 75.198771 0.000001 0.000000 0.000000 -3.076617 -4.994717 74.747172 3.773223 -4.572675 79.046879 0.000001 -0.000001 -0.000001 -3.840237 -5.372827 78.973031 3.128493 -4.399647 70.818331 0.000002 0.000002 -0.000001 -1.479027 -6.456927 84.329204 3.521916 -4.516954 75.876189 -0.000001 0.000002 -0.000000 -0.000000 -0.000001 0.000001 -0.000000 0.000000 0.000001 0.000000 -0.000001 -0.000000 0.000002 0.000000 0.000001 0.000002 0.000001 -0.000002 0.000002 0.000000 0.000001 0.000002 0.000001 -0.000000 0.000001 0.000000 -0.000000 0.000001 0.000000 -0.000000 0.000001 0.000000 -0.000000 0.000001 0.000000 -0.000000 0.000001 0.000000 -0.000000 0.000001 0.000000 -0.000000 0.000001 0.000000 -0.000000 -0.000001 -0.000001 0.000000 0.000000 -0.000000 -0.000000 
-0.029631 80.209663 38.010464 -0.456233 -3.985591 -4.561030 0.000000 -0.000000 0.000000 -80.362168 1.726881 8.206222 67.173743 9.607146 -3.931624 15.046751 2.711438 10.099598 0.000000 -0.000001 0.000000 -0.000000 -0.000000 0.000001 9.911459 -7.288375 4.694237 47.352035 2.500978 4.668524 -41.223224 0.120419 -6.969780 -0.000001 -0.000001 0.000000 -0.000001 -0.000000 -0.000000 11.055510 -2.406542 4.989183 2.560860 -1.027856 0.986636 4.042488 -1.017635 0.859534 -0.586764 -0.076296 -0.150237 -0.586774 -0.076291 -0.150238 0.000002 -0.000001 0.000000 -0.586769 -0.076292 -0.150237 -0.586634 -0.076296 -0.150237 0.000001 -0.000001 0.000000 0.000002 -0.000001 0.000000 0.906496 -1.493002 -15.666664 4.246968 -12.804339 -52.398548 0.000007 -60.579352 0.000007 12.364470 -4.395177 -1.164508 1.867941 6.431621 -6.899863 13.539177 17.038124 20.152296 0.000003 -0.000001 -0.000001 12.312027 4.542180 -99.452861 4.605736 5.717471 -77.690438 0.000002 -0.000002 0.000001 5.568468 8.189301 -87.448251 5.282910 5.823503 -84.418290 -0.000004 0.000001 0.000003 1.936918 7.848808 -84.483388 6.697626 5.789668 -98.333387 -0.000006 0.000001 -0.000000 5.762774 12.312855 -83.467043 5.010139 5.790512 -81.722797 0.000003 -0.000005 -0.000002 0.000000 -0.000003 0.000002 0.000000 -0.000003 0.000002 -0.000001 -0.000002 0.000002 -0.000001 -0.000001 0.000002 -0.000001 0.000000 0.000002 -0.000001 -0.000001 0.000002 -0.000001 -0.000000 0.000002 -0.226703 16.010674 17.983222 -0.388882 35.713205 29.128219 -0.000001 55.630709 -0.000000 9.476036 20.101689 -9.361681 5.561815 -3.780413 -3.043661 2.452767 -9.073089 -15.959077 0.000000 0.000001 -0.000000 -3.711486 -3.315024 73.209492 3.468675 -4.503296 75.199112 -0.000000 0.000001 -0.000001 -3.076600 -4.994637 74.746537 3.773251 -4.572687 79.047350 0.000001 0.000001 0.000000 -3.840145 -5.372746 78.972362 3.128502 -4.399646 70.818605 -0.000001 0.000001 0.000000 -1.478875 -6.456981 84.328603 3.521922 -4.516957 75.876619 0.000000 0.000003 -0.000001 -0.000001 0.000001 0.000001 -0.000002 -0.000000 -0.000002 -0.000001 0.000001 -0.000000 0.000001 0.000001 -0.000001 0.000001 0.000001 -0.000000 0.000001 0.000001 -0.000001 0.000001 0.000001 0.000002 -0.000000 0.000000 -0.000000 -0.000000 0.000000 -0.000000 -0.000000 0.000000 -0.000000 -0.000000 0.000000 -0.000000 -0.000000 0.000000 -0.000000 -0.000000 0.000000 -0.000000 -0.000000 0.000000 -0.000000 -0.000001 -0.000000 -0.000000 0.000000 -0.000000 0.000000 
